#!OML:ASF H:\ManfredETheater\Project 1\Capture day 1\Session 1\subject.ASF
:FULLY-SPECIFIED
:DEGREES
123
root 4.55979 21.3191 -9.49536 -187.467 -43.4539 189.774
lowerback 23.874 1.96935 2.67315
upperback 7.63407 2.30217 3.53431
thorax -4.91167 0.634254 1.71196
lowerneck -4.95383 -7.89981 -10.7693
upperneck 16.3743 -11.0311 5.83153
head 6.7244 -5.68863 2.72987
rclavicle 7.95139e-016 -9.14409e-015
rhumerus -32.8353 10.5683 -15.1152
rradius 80.428
rwrist -4.32863
rhand -23.0571 -1.07535
rfingers 7.12502
rthumb 3.38794 -31.0282
lclavicle 7.95139e-016 -9.14409e-015
lhumerus -58.9812 -8.42869 15.0501
lradius 61.8258
lwrist 10.3792
lhand -23.2538 -3.0807
lfingers 7.12502
lthumb 3.19798 26.8751
rfemur -38.4578 -7.50453 13.0223
rtibia 40.2497
rfoot 12.4568 -10.2371
rtoes -16.9786
lfemur -47.0443 -0.290762 -18.4732
ltibia 46.8023
lfoot 13.3787 -9.34084
ltoes -4.83117
124
root 4.39089 20.9856 -9.95713 -187.79 -43.5111 189.36
lowerback 23.1047 2.13054 2.27993
upperback 7.5816 2.43409 3.413
thorax -4.60079 0.721913 1.77639
lowerneck -4.8372 -7.95377 -10.8621
upperneck 16.6705 -11.1641 5.92464
head 6.82141 -5.76324 2.76137
rclavicle -6.89783e-014 1.78906e-015
rhumerus -33.3768 10.4759 -14.6299
rradius 82.0545
rwrist -4.18141
rhand -22.6481 -0.784993
rfingers 7.12502
rthumb 3.78292 -30.7312
lclavicle -6.89783e-014 1.78906e-015
lhumerus -60.1686 -9.34806 15.4648
lradius 63.2648
lwrist 10.185
lhand -22.9921 -3.49763
lfingers 7.12502
lthumb 3.45072 26.4542
rfemur -36.5153 -6.70628 12.5826
rtibia 39.2277
rfoot 14.1837 -9.6834
rtoes -16.2829
lfemur -44.6361 -0.810582 -18.4218
ltibia 45.9627
lfoot 14.3215 -9.76778
ltoes -2.19304
125
root 4.2221 20.6385 -10.4223 -188.044 -43.6223 188.944
lowerback 22.2628 2.28582 1.86583
upperback 7.49972 2.56642 3.27406
thorax -4.28383 0.812314 1.83821
lowerneck -4.73985 -8.02096 -10.9185
upperneck 16.9351 -11.3157 6.02891
head 6.91216 -5.84243 2.78854
rclavicle 4.99943e-014 -1.39149e-014
rhumerus -33.9772 10.1818 -14.3871
rradius 83.7216
rwrist -4.06939
rhand -22.2887 -0.548724
rfingers 7.12502
rthumb 4.12999 -30.4884
lclavicle 4.99943e-014 -1.39149e-014
lhumerus -61.3528 -9.95695 15.9428
lradius 64.7519
lwrist 10.0935
lhand -22.7633 -3.92735
lfingers 7.12502
lthumb 3.67169 26.0208
rfemur -34.6962 -5.92608 12.2085
rtibia 38.4345
rfoot 15.7232 -8.93461
rtoes -15.5902
lfemur -42.3658 -1.27908 -18.4945
ltibia 45.2811
lfoot 14.9428 -10.2995
ltoes 0.0238025
126
root 4.05388 20.2782 -10.8896 -188.241 -43.7998 188.545
lowerback 21.3642 2.4227 1.44601
upperback 7.38683 2.68681 3.12196
thorax -3.96855 0.89878 1.89693
lowerneck -4.66496 -8.10044 -10.9518
upperneck 17.1553 -11.4806 6.14358
head 6.99339 -5.92397 2.81371
rclavicle 1.70458e-014 -8.74653e-015
rhumerus -34.629 9.70125 -14.3905
rradius 85.4416
rwrist -3.98301
rhand -22.0065 -0.356313
rfingers 7.12502
rthumb 4.40249 -30.2906
lclavicle 1.70458e-014 -8.74653e-015
lhumerus -62.5469 -10.2543 16.4907
lradius 66.2615
lwrist 10.0747
lhand -22.5733 -4.3732
lfingers 7.12502
lthumb 3.85514 25.5717
rfemur -32.9994 -5.23119 11.929
rtibia 37.8901
rfoot 17.0105 -8.03112
rtoes -14.9719
lfemur -40.249 -1.67212 -18.6776
ltibia 44.7724
lfoot 15.2013 -10.8575
ltoes 1.47832
127
root 3.88631 19.9053 -11.3569 -188.355 -44.0619 188.133
lowerback 20.4225 2.52786 1.00817
upperback 7.24135 2.77563 2.95519
thorax -3.66259 0.971176 1.96225
lowerneck -4.62341 -8.18673 -10.9913
upperneck 17.3203 -11.6448 6.26877
head 7.06405 -6.00218 2.84241
rclavicle -1.06996e-013 5.56597e-015
rhumerus -35.3159 9.05759 -14.6317
rradius 87.2354
rwrist -3.91255
rhand -21.8117 -0.186806
rfingers 7.12502
rthumb 4.5906 -30.1171
lclavicle -1.06996e-013 5.56597e-015
lhumerus -63.7737 -10.2275 17.1284
lradius 67.7699
lwrist 10.0998
lhand -22.4083 -4.81216
lfingers 7.12502
lthumb 4.0145 25.1298
rfemur -31.4451 -4.71477 11.7277
rtibia 37.6415
rfoot 18.0308 -7.03675
rtoes -14.2967
lfemur -38.3035 -1.97896 -18.9934
ltibia 44.4398
lfoot 15.1143 -11.424
ltoes 1.95497
